<?xml version="1.0" standalone="no"?>
<!DOCTYPE svg PUBLIC "-//W3C//DTD SVG 20010904//EN"
 "http://www.w3.org/TR/2001/REC-SVG-20010904/DTD/svg10.dtd">
<svg version="1.0" xmlns="http://www.w3.org/2000/svg"
 width="300.000000pt" height="300.000000pt" viewBox="0 0 300.000000 300.000000"
 preserveAspectRatio="xMidYMid meet">
<metadata>
Created by potrace 1.10, written by Peter Selinger 2001-2011
</metadata>
<g transform="translate(0.000000,300.000000) scale(0.100000,-0.100000)"
fill="#000000" stroke="none">
<path d="M1470 2199 c-62 -24 -78 -96 -34 -148 33 -40 89 -43 131 -7 74 64 -5
190 -97 155z m68 -51 c19 -19 15 -66 -7 -78 -31 -16 -49 -12 -67 15 -15 23
-15 27 0 50 18 27 54 33 74 13z"/>
<path d="M1149 2105 c-81 -45 -46 -175 46 -175 50 0 95 44 95 94 0 70 -80 116
-141 81z m90 -59 c24 -44 -24 -90 -69 -66 -23 12 -28 58 -8 78 21 21 63 14 77
-12z"/>
<path d="M1761 2107 c-27 -16 -50 -53 -51 -80 -1 -50 50 -97 106 -97 39 0 84
51 84 94 0 69 -80 116 -139 83z m89 -57 c15 -28 4 -59 -26 -72 -19 -9 -28 -8
-44 7 -22 20 -26 55 -8 73 20 20 66 15 78 -8z"/>
<path d="M1383 1896 c-146 -47 -257 -178 -284 -335 -22 -124 33 -276 131 -363
246 -218 624 -84 681 241 30 168 -69 354 -229 433 -58 29 -77 33 -161 35 -61
2 -111 -2 -138 -11z m271 -55 c74 -32 138 -92 176 -163 31 -56 35 -73 38 -158
5 -130 -18 -191 -102 -276 -80 -79 -148 -107 -261 -107 -113 0 -181 28 -261
107 -85 85 -107 146 -102 276 3 74 9 105 27 140 52 99 113 153 211 188 82 29
198 26 274 -7z"/>
<path d="M1437 1810 c-92 -23 -179 -97 -220 -188 -33 -72 -30 -179 6 -254 52
-107 146 -169 268 -176 67 -4 84 -1 132 21 74 34 131 88 164 155 23 47 28 70
28 132 0 92 -23 148 -90 219 -72 77 -191 115 -288 91z m186 -62 c64 -28 123
-96 143 -166 39 -132 -17 -261 -139 -322 -236 -118 -483 131 -364 367 68 132
216 182 360 121z"/>
<path d="M1973 1876 c-39 -33 -50 -74 -29 -115 31 -60 99 -70 147 -22 56 56
27 145 -52 157 -28 5 -41 1 -66 -20z m97 -45 c5 -11 10 -24 10 -30 0 -16 -38
-51 -54 -51 -37 0 -61 61 -34 88 19 19 66 15 78 -7z"/>
<path d="M906 1859 c-34 -40 -34 -80 2 -120 22 -25 36 -31 67 -31 31 0 45 6
67 31 36 40 36 80 2 120 -21 26 -33 31 -69 31 -36 0 -48 -5 -69 -31z m110 -34
c15 -23 15 -27 0 -50 -10 -15 -26 -25 -41 -25 -15 0 -31 10 -41 25 -15 23 -15
27 0 50 10 15 26 25 41 25 15 0 31 -10 41 -25z"/>
<path d="M829 1561 c-56 -56 -27 -145 52 -157 67 -11 125 64 98 128 -25 60
-103 75 -150 29z m89 -27 c24 -17 29 -53 10 -72 -19 -19 -66 -15 -78 7 -14 28
-13 38 10 61 24 24 29 24 58 4z"/>
<path d="M2045 1565 c-19 -18 -25 -35 -25 -65 0 -30 6 -47 25 -65 18 -19 35
-25 65 -25 30 0 47 6 65 25 19 18 25 35 25 65 0 30 -6 47 -25 65 -18 19 -35
25 -65 25 -30 0 -47 -6 -65 -25z m99 -31 c9 -8 16 -24 16 -34 0 -10 -7 -26
-16 -34 -8 -9 -24 -16 -34 -16 -43 0 -65 54 -34 84 8 9 24 16 34 16 10 0 26
-7 34 -16z"/>
<path d="M909 1261 c-32 -33 -37 -67 -15 -110 14 -26 53 -51 81 -51 28 0 67
25 81 51 22 43 17 77 -15 110 -41 40 -91 40 -132 0z m93 -23 c37 -31 20 -88
-27 -88 -28 0 -56 35 -48 59 7 19 32 41 48 41 6 0 18 -6 27 -12z"/>
<path d="M1977 1279 c-27 -16 -49 -67 -42 -99 4 -16 21 -41 38 -56 89 -75 200
54 118 137 -31 31 -79 38 -114 18z m83 -49 c36 -36 15 -84 -34 -78 -66 7 -60
86 7 97 4 0 16 -8 27 -19z"/>
<path d="M1136 1035 c-35 -32 -36 -92 -2 -132 19 -22 32 -28 66 -28 34 0 47 6
66 28 55 64 15 157 -66 157 -25 0 -45 -8 -64 -25z m99 -35 c24 -27 13 -68 -22
-76 -33 -9 -57 6 -61 38 -6 50 49 76 83 38z"/>
<path d="M1743 1036 c-22 -19 -28 -32 -28 -64 0 -74 71 -120 134 -88 60 31 70
99 22 147 -38 37 -88 39 -128 5z m97 -36 c24 -24 25 -38 3 -62 -33 -37 -83
-17 -83 34 0 45 46 62 80 28z"/>
<path d="M1436 949 c-59 -70 -3 -169 87 -152 70 14 98 113 44 159 -42 36 -98
33 -131 -7z m95 -19 c12 -7 19 -21 19 -40 0 -51 -58 -68 -86 -25 -15 23 -15
27 0 50 18 27 36 31 67 15z"/>
</g>
</svg>
